<svg xmlns="http://www.w3.org/2000/svg" width="24" height="24" viewBox="0 0 24 24" fill="none" stroke="currentColor" stroke-width="2" stroke-linecap="round" stroke-linejoin="round">
 <path d="m6.1458 1.9938c3.0111 2.2606 6.2500 6.8441 7.4391 9.3038 1.1892-2.4596 4.4279-7.0433 7.4391-9.3038 2.1727-1.6311 5.6930-2.8932 5.6930 1.1228 0 0.8021-0.4598 6.7377-0.7296 7.7013-0.9375 3.3502-4.3537 4.2047-7.3925 3.6875 5.3117 0.9040 6.6629 3.8985 3.7448 6.8930-5.5422 5.6871-7.9657-1.4269-8.5870-3.2498-0.1138-0.3342-0.1671-0.4905-0.1679-0.3576-0.0008-0.1329-0.0541 0.0234-0.1679 0.3576-0.6210 1.8229-3.0445 8.9371-8.5870 3.2498-2.9182-2.9945-1.5670-5.9891 3.7448-6.8930-3.0389 0.5172-6.4551-0.3373-7.3925-3.6875-0.2697-0.9637-0.7296-6.8993-0.7296-7.7013 0-4.0160 3.5204-2.7539 5.6930-1.1228z"/>
</svg>
